<svg width="543" height="543" viewBox="0 0 543 543" fill="none" xmlns="http://www.w3.org/2000/svg">
<circle cx="271.5" cy="271.5" r="271.5" fill="#4768DB"/>
<circle cx="271.5" cy="271.5" r="235.848" fill="#A9FBE7"/>
<path d="M376.197 85.0152H169.546C166.784 85.0152 164.546 87.2538 164.546 90.0152V474.146C164.546 477.964 168.651 480.373 171.984 478.511L270.433 423.517C271.948 422.67 273.794 422.67 275.31 423.517L373.759 478.512C377.092 480.373 381.197 477.964 381.197 474.146V90.0152C381.197 87.2538 378.959 85.0152 376.197 85.0152Z" fill="#F53F3F"/>
<rect x="93.2424" y="150.833" width="355.296" height="211.167" rx="5" fill="#9C9696"/>
<rect x="99.9461" y="157.537" width="341.889" height="197.759" rx="3" fill="#484646"/>
<path d="M93.2424 368.704H448.539V386.167C448.539 389.481 445.852 392.167 442.539 392.167H99.2424C95.9287 392.167 93.2424 389.481 93.2424 386.167V368.704Z" fill="#9C9696"/>
<path d="M136.873 189.849L146.488 193.083V198.48L130.949 192.151V187.476L146.488 181.148V186.526L136.873 189.849Z" fill="white"/>
<path d="M141.654 319.936L132.092 316.684V311.305L147.543 317.634V322.309L132.092 328.638V323.259L141.654 319.936Z" fill="white"/>
<rect x="230.668" y="372.056" width="83.7963" height="3.35185" rx="1.67593" fill="#E7E7E7"/>
<rect x="130.114" y="204.463" width="97.2037" height="10.0556" rx="2" fill="#DEFF16"/>
<rect x="230.668" y="204.463" width="97.2037" height="10.0556" rx="2" fill="#BDFD7D"/>
<rect x="331.224" y="204.463" width="30.1667" height="10.0556" rx="2" fill="#F53F3F"/>
<rect x="130.113" y="217.87" width="97.2037" height="10.0556" rx="2" fill="#C4C4C4"/>
<rect x="230.668" y="217.87" width="20.1111" height="10.0556" rx="2" fill="#359EFF"/>
<rect x="254.131" y="217.87" width="26.8148" height="10.0556" rx="2" fill="#F53F3F"/>
<rect x="130.113" y="258.093" width="56.9815" height="10.0556" rx="2" fill="#C4C4C4"/>
<rect x="190.446" y="258.093" width="170.944" height="10.0556" rx="2" fill="#DEFF16"/>
<rect x="284.298" y="217.87" width="77.0926" height="10.0556" rx="2" fill="#C4C4C4"/>
<rect x="130.113" y="231.278" width="33.5185" height="10.0556" rx="2" fill="#359EFF"/>
<rect x="166.983" y="231.278" width="83.7963" height="10.0556" rx="2" fill="#BDFD7D"/>
<rect x="254.131" y="231.278" width="107.259" height="10.0556" rx="2" fill="#DEFF16"/>
<rect x="130.113" y="271.5" width="97.2037" height="10.0556" rx="2" fill="#F53F3F"/>
<rect x="230.668" y="271.5" width="97.2037" height="10.0556" rx="2" fill="#DEFF16"/>
<rect x="331.224" y="271.5" width="30.1667" height="10.0556" rx="2" fill="#F53F3F"/>
<rect x="130.113" y="284.907" width="97.2037" height="10.0556" rx="2" fill="#BDFD7D"/>
<rect x="230.668" y="284.907" width="20.1111" height="10.0556" rx="2" fill="#359EFF"/>
<rect x="254.131" y="284.907" width="26.8148" height="10.0556" rx="2" fill="#F53F3F"/>
<rect x="284.298" y="284.907" width="77.0926" height="10.0556" rx="2" fill="#C4C4C4"/>
<rect x="130.113" y="298.315" width="33.5185" height="10.0556" rx="2" fill="#BDFD7D"/>
<rect x="166.983" y="298.315" width="83.7963" height="10.0556" rx="2" fill="#DEFF16"/>
<rect x="254.131" y="298.315" width="107.259" height="10.0556" rx="2" fill="#359EFF"/>
<rect x="130.113" y="244.685" width="33.5185" height="10.0556" rx="2" fill="#DEFF16"/>
<rect x="166.983" y="244.685" width="53.6296" height="10.0556" rx="2" fill="#359EFF"/>
<rect x="297.705" y="244.685" width="63.6852" height="10.0556" rx="2" fill="#BDFD7D"/>
<rect x="223.965" y="244.685" width="70.3889" height="10.0556" rx="2" fill="#FB2929"/>
<path d="M271.5 85.0152C271.5 85.0152 270.934 98.3799 276.69 102.823C282.7 107.462 296.182 102.823 296.182 102.823C296.182 102.823 283.203 106.874 280.928 113.829C278.652 120.783 286.754 131.636 286.754 131.636C286.754 131.636 278.863 120.631 271.5 120.631C264.137 120.631 256.246 131.636 256.246 131.636C256.246 131.636 264.348 120.783 262.072 113.829C259.797 106.874 246.818 102.823 246.818 102.823C246.818 102.823 259.716 107.121 265.673 102.823C271.631 98.5249 271.5 85.0152 271.5 85.0152Z" fill="#DEFF16"/>
</svg>
